<svg width="400" height="300" viewBox="0 0 400 300" xmlns="http://www.w3.org/2000/svg">
  <rect width="400" height="300" fill="#f8fafc"/>
  <rect x="20" y="20" width="360" height="260" fill="white" rx="8" stroke="#e2e8f0" stroke-width="1"/>
  
  <!-- Header -->
  <rect x="30" y="30" width="340" height="40" fill="#059669" rx="4"/>
  <text x="200" y="55" text-anchor="middle" fill="white" font-family="Arial, sans-serif" font-size="16" font-weight="bold">A11y Testing Toolkit</text>
  
  <!-- Accessibility icon -->
  <circle cx="80" cy="100" r="25" fill="none" stroke="#059669" stroke-width="3"/>
  <circle cx="80" cy="90" r="8" fill="#059669"/>
  <path d="M 65 120 Q 80 110 95 120" stroke="#059669" stroke-width="3" fill="none"/>
  <path d="M 70 130 L 90 130" stroke="#059669" stroke-width="3"/>
  
  <!-- Test results -->
  <rect x="120" y="90" width="250" height="20" fill="#dcfce7" rx="2"/>
  <text x="125" y="105" fill="#166534" font-family="Arial, sans-serif" font-size="12">✓ WCAG 2.1 AA Compliance: Passed</text>
  
  <rect x="120" y="120" width="250" height="20" fill="#fef3c7" rx="2"/>
  <text x="125" y="135" fill="#92400e" font-family="Arial, sans-serif" font-size="12">⚠ Color Contrast: 3 issues found</text>
  
  <rect x="120" y="150" width="250" height="20" fill="#fee2e2" rx="2"/>
  <text x="125" y="165" fill="#991b1b" font-family="Arial, sans-serif" font-size="12">✗ Keyboard Navigation: 1 issue found</text>
  
  <!-- Report summary -->
  <rect x="30" y="190" width="340" height="80" fill="#f1f5f9" rx="4"/>
  <text x="40" y="210" fill="#334155" font-family="Arial, sans-serif" font-size="14" font-weight="bold">Accessibility Report Summary</text>
  <text x="40" y="230" fill="#64748b" font-family="Arial, sans-serif" font-size="11">Total Tests: 47 | Passed: 43 | Warnings: 3 | Errors: 1</text>
  <text x="40" y="245" fill="#64748b" font-family="Arial, sans-serif" font-size="11">Coverage: 94% | Performance Impact: Minimal</text>
  <text x="40" y="260" fill="#64748b" font-family="Arial, sans-serif" font-size="11">Remediation suggestions provided for all issues</text>
</svg>